#!OML:ASF H:\Pregnant\Project 1\Capture day 1\Session 1\femalepreg.ASF
:FULLY-SPECIFIED
:DEGREES
1920
root 2.87532 2.99762 18.495 -39.0074 41.5649 -37.1717
lowerback 5.23478 3.70001 -4.82973
upperback 9.76421 4.94505 7.28601
thorax 6.36356 2.00706 10.5606
lowerneck -4.41452 15.1431 15.3525
upperneck 30.7535 23.7183 -9.08977
head 14.2878 11.447 -2.34419
rclavicle -4.73108e-014 3.49861e-014
rhumerus -49.0015 2.88021 -62.1524
rradius 35.0037
rwrist -7.23243
rhand -35.0931 700.353
rfingers 7.12502
rthumb -8.2346 -409.467
lclavicle -4.73108e-014 3.49861e-014
lhumerus -37.6714 -5.01753 62.6563
lradius 27.8393
lwrist 55.6382
lhand -56.9115 -622.556
lfingers 7.12502
lthumb -29.2069 -69.7162
rfemur -79.3124 14.9381 -22.1866
rtibia 101.386
rfoot 11.3489 -7.14165
rtoes 12.0261
lfemur -91.0012 -0.51955 -18.5134
ltibia 61.2813
lfoot -113.185 -213.999
ltoes 40.4709
1921
root 2.87025 2.99377 18.4853 -38.9201 41.4208 -36.9247
lowerback 5.19492 3.46704 -5.10715
upperback 9.81265 4.62302 7.46665
thorax 6.486 1.80865 10.9504
lowerneck -4.59964 15.0102 14.9886
upperneck 30.9987 23.5959 -9.11243
head 14.3656 11.3449 -2.31494
rclavicle -1.07344e-014 3.02153e-014
rhumerus -49.7275 3.66576 -62.7329
rradius 33.8824
rwrist -7.2824
rhand -33.9776 700.03
rfingers 7.12502
rthumb -7.15791 -409.829
lclavicle -1.07344e-014 3.02153e-014
lhumerus -38.2406 -4.70561 63.0252
lradius 27.4574
lwrist 56.22
lhand -57.0043 -622.341
lfingers 7.12502
lthumb -29.2956 -69.9468
rfemur -79.4269 14.9518 -22.2194
rtibia 101.32
rfoot 11.3571 -7.03225
rtoes 12.0795
lfemur -90.9479 -0.306164 -18.7496
ltibia 61.3383
lfoot -111.911 -213.331
ltoes 39.773
1922
root 2.87075 2.97927 18.5285 -38.805 41.2682 -36.6648
lowerback 5.10656 3.23381 -5.42476
upperback 9.87096 4.30105 7.67224
thorax 6.65079 1.60245 11.4
lowerneck -4.78887 14.8881 14.6038
upperneck 31.2405 23.504 -9.16328
head 14.4502 11.2498 -2.28657
rclavicle -5.84427e-014 2.70347e-014
rhumerus -50.4389 4.45626 -63.301
rradius 32.8261
rwrist -7.28932
rhand -32.8001 699.711
rfingers 7.12502
rthumb -6.02125 -410.183
lclavicle -5.84427e-014 2.70347e-014
lhumerus -38.7942 -4.35061 63.4467
lradius 27.0708
lwrist 56.8032
lhand -57.09 -622.095
lfingers 7.12502
lthumb -29.3774 -70.2066
rfemur -79.8735 15.0219 -22.2484
rtibia 101.642
rfoot 11.2994 -6.99883
rtoes 12.1755
lfemur 27.212 -162.383 -31.6995
ltibia 60.5308
lfoot -269.289 -217.737
ltoes 35.714
1923
root 2.86441 2.97483 18.5182 -38.6608 41.1087 -36.3949
lowerback 4.99804 3.00256 -5.74067
upperback 9.91557 3.98208 7.8677
thorax 6.81941 1.39656 11.8396
lowerneck -4.96884 14.7745 14.2508
upperneck 31.4845 23.4314 -9.23017
head 14.5459 11.164 -2.26463
rclavicle 7.95139e-016 -3.18055e-014
rhumerus -51.1817 5.21421 -63.906
rradius 31.8367
rwrist -7.26022
rhand -31.6069 699.391
rfingers 7.12502
rthumb -4.86914 -410.533
lclavicle 7.95139e-016 -3.18055e-014
lhumerus -39.3351 -3.96663 63.8448
lradius 26.6736
lwrist 57.3488
lhand -57.165 -621.877
lfingers 7.12502
lthumb -29.4491 -70.4371
rfemur -80.055 15.0024 -22.3008
rtibia 101.572
rfoot 11.3153 -6.8555
rtoes 12.2726
lfemur 27.0515 -162.178 -31.784
ltibia 60.574
lfoot -268.33 -218.189
ltoes 34.8638
1924
root 2.85742 2.96995 18.5076 -38.4921 40.9393 -36.1165
lowerback 4.87747 2.77633 -6.04514
upperback 9.94405 3.67017 8.05093
thorax 6.98342 1.19461 12.2596
lowerneck -5.13684 14.6667 13.9282
upperneck 31.7303 23.3702 -9.30276
head 14.6485 11.0853 -2.24719
rclavicle 6.36111e-014 9.06458e-014
rhumerus -51.9606 5.91773 -64.5387
rradius 30.9095
rwrist -7.19803
rhand -30.3941 699.079
rfingers 7.12502
rthumb -3.69807 -410.869
lclavicle 6.36111e-014 9.06458e-014
lhumerus -39.8726 -3.61257 64.2412
lradius 26.2845
lwrist 57.9061
lhand -57.2351 -621.685
lfingers 7.12502
lthumb -29.5159 -70.6416
rfemur -80.2678 14.9697 -22.3571
rtibia 101.502
rfoot 11.3415 -6.7093
rtoes 12.3714
lfemur 26.9307 -161.97 -31.8564
ltibia 60.6167
lfoot -267.372 -218.64
ltoes 34.0023
